<svg width="250" height="116" viewBox="0 0 250 116" fill="none" xmlns="http://www.w3.org/2000/svg">
<rect width="250" height="116" fill="white"/>
<path d="M67.4722 52H68.9217C70.1292 52 71.1392 51.1395 71.3712 50H69.9217C68.7147 50 67.7047 50.8605 67.4722 52Z" fill="#09A66D"/>
<path d="M56 47.5C56.0495 47.5 56.0975 47.506 56.147 47.5075L56.498 43.9975C56.5 43.703 56.297 43.5 56.0475 43.5H55.953C55.703 43.5 55.5 43.703 55.5 43.9525L55.8535 47.5075C55.9025 47.506 55.9505 47.5 56 47.5Z" fill="#09A66D"/>
<path d="M52 58C52 57.8295 52.0175 57.663 52.045 57.5H51V57.8425C51.3745 58.021 51.713 58.262 52 58.555V58Z" fill="#09A66D"/>
<path d="M51.5951 45.7781L53.3056 48.2961C53.4396 48.2096 53.5781 48.1296 53.7206 48.0561L52.6921 45.2276C52.6846 45.2076 52.6771 45.1891 52.6676 45.1711C52.5971 45.0301 52.4851 44.9326 52.3456 44.8866C52.2061 44.8401 52.0576 44.8511 51.9271 44.9166L51.8021 44.9791C51.5316 45.1141 51.4216 45.4441 51.5571 45.7146C51.5681 45.7346 51.5811 45.7571 51.5951 45.7781Z" fill="#09A66D"/>
<path d="M53.691 56.5H59.26L59.916 53.352C59.9715 53.084 60 52.8095 60 52.536C60 50.2945 58.2055 48.5 56 48.5C53.7945 48.5 52 50.2945 52 52.5C52 52.8095 52.0285 53.084 52.084 53.352L52.662 56.125C53.212 55.44 54.055 55 55 55V56C54.4975 56 54.043 56.1925 53.691 56.5ZM57.5 50.5H58.5V51.5H57.5V50.5ZM57.5 52.5H58.5V53.5H57.5V52.5ZM57.5 54.5H58.5V55.5H57.5V54.5Z" fill="#09A66D"/>
<path d="M50.5002 60.5H51.9497C51.7172 59.3605 50.7077 58.5 49.5002 58.5H48.0507C48.2827 59.6395 49.2927 60.5 50.5002 60.5Z" fill="#09A66D"/>
<path d="M60.4055 45.7765C60.4185 45.7565 60.432 45.7345 60.443 45.712C60.5775 45.4435 60.4675 45.1135 60.197 44.9785L60.072 44.916C59.941 44.851 59.7935 44.8395 59.6535 44.886C59.5145 44.9325 59.402 45.03 59.3365 45.161C59.3225 45.189 59.3145 45.2075 59.3075 45.2265L58.279 48.055C58.4215 48.1285 58.56 48.2085 58.6945 48.295L60.4055 45.7765Z" fill="#09A66D"/>
<path d="M59.492 66.5H73.5001V63.5H58.826C59.2675 64.4285 59.4915 65.449 59.492 66.5ZM71.5001 64.5H72.5001V65.5H71.5001V64.5Z" fill="#09A66D"/>
<path d="M58.2316 70.5H72.0001C72.8271 70.5 73.5001 69.827 73.5001 69V67.5H59.4281C59.2686 68.6015 58.8476 69.623 58.2316 70.5ZM71.5001 68.5H72.5001V69.5H71.5001V68.5Z" fill="#09A66D"/>
<path d="M53.071 57.5C53.029 57.661 53 57.8265 53 58V58.5H73.5H74H75.5V57.5H53.071Z" fill="#09A66D"/>
<path d="M53 60.9335C53.1005 60.909 53.201 60.8835 53.2925 60.844C54.8175 60.1915 56.5925 60.5835 57.7055 61.821C57.8995 62.0365 58.0735 62.2655 58.237 62.4995H73.5V59.4995H53V60.9335ZM71.5 60.5H72.5V61.5H71.5V60.5Z" fill="#09A66D"/>
<path d="M56.9625 62.4899C56.1485 61.5849 54.801 61.2854 53.686 61.7634C53.4715 61.8549 53.2395 61.9179 53 61.9564V62.8979C53.4965 62.7129 53.968 62.3234 54.147 62.1454L54.8535 62.8534C54.7365 62.9709 53.6735 63.9999 52.5 63.9999C51.3265 63.9999 50.2635 62.9709 50.1465 62.8534L50.853 62.1454C51.032 62.3229 51.5035 62.7124 52 62.8979V61.4999H50.5C50.3305 61.4999 50.1655 61.4839 50.0025 61.4604C49.3015 61.5104 48.5605 61.9024 48.0145 62.5154C47.038 63.6139 46.5 65.0284 46.5 66.4999C46.5 68.1464 47.154 69.6819 48.3405 70.8239C49.527 71.9654 51.08 72.5549 52.739 72.4954C55.8295 72.3759 58.3575 69.8619 58.4945 66.7724C58.564 65.1869 58.02 63.6659 56.9625 62.4899ZM52.5 71.4999C49.743 71.4999 47.5 69.2569 47.5 66.4999H48.5C48.5 68.7054 50.2945 70.4999 52.5 70.4999V71.4999Z" fill="#09A66D"/>
<path d="M71.3854 56.5C71.1464 55.571 70.6899 54.7115 70.0409 53.99C69.2264 53.085 67.8789 52.7865 66.7639 53.2635C66.6789 53.3 66.5899 53.3305 66.4999 53.359V49C66.4999 48.173 67.1729 47.5 67.9999 47.5H68.4999V46.5H67.9999C66.6214 46.5 65.4999 47.6215 65.4999 49V53.359C65.4099 53.3305 65.3209 53.3 65.2359 53.2635C64.1214 52.7865 62.7734 53.085 61.9589 53.99C61.3099 54.7115 60.8534 55.5705 60.6144 56.5H65.9999H71.3854ZM63.7534 54.069C63.7609 54.073 64.5179 54.5 65.9999 54.5C67.4819 54.5 68.2389 54.073 68.2464 54.069L68.7569 54.9285C68.7184 54.952 67.7844 55.5 65.9999 55.5C64.2154 55.5 63.2814 54.952 63.2424 54.9285L63.7534 54.069Z" fill="#09A66D"/>
</svg>
