<svg width="56" height="56" viewBox="0 0 56 56" fill="none" xmlns="http://www.w3.org/2000/svg">
<circle cx="28" cy="28" r="28" fill="#F3FBF8"/>
<g clip-path="url(#clip0_32_166)">
<g filter="url(#filter0_dd_32_166)">
<g filter="url(#filter1_dd_32_166)">
<path d="M28.0022 12C23.4308 12 19.6938 15.7369 19.6938 20.3084C19.6938 24.8799 23.4308 28.6168 28.0022 28.6168C32.5737 28.6168 36.3106 24.8799 36.3106 20.3084C36.3106 15.7369 32.5737 12 28.0022 12Z" fill="#09A66D"/>
</g>
<path d="M42.2607 35.2563C42.043 34.7121 41.7528 34.2041 41.4263 33.7325C39.7573 31.2653 37.1814 29.6327 34.2789 29.2336C33.9161 29.1973 33.517 29.2698 33.2267 29.4875C31.7029 30.6123 29.8889 31.1927 28.0022 31.1927C26.1156 31.1927 24.3015 30.6123 22.7777 29.4875C22.4874 29.2698 22.0883 29.161 21.7256 29.2336C18.8231 29.6327 16.2108 31.2653 14.5782 33.7325C14.2517 34.2041 13.9614 34.7484 13.7438 35.2563C13.6349 35.474 13.6712 35.728 13.78 35.9457C14.0703 36.4536 14.4331 36.9616 14.7596 37.3969C15.2675 38.0863 15.8117 38.703 16.4285 39.2835C16.9365 39.7914 17.5169 40.2631 18.0975 40.7348C20.9637 42.8754 24.4104 44 27.966 44C31.5215 44 34.9683 42.8753 37.8344 40.7348C38.4149 40.2994 38.9954 39.7914 39.5034 39.2835C40.0839 38.703 40.6644 38.0862 41.1724 37.3969C41.5351 36.9252 41.8617 36.4536 42.1519 35.9457C42.3333 35.728 42.3695 35.4739 42.2607 35.2563Z" fill="#09A66D"/>
</g>
</g>
<defs>
<filter id="filter0_dd_32_166" x="9.67804" y="12" width="36.6439" height="40" filterUnits="userSpaceOnUse" color-interpolation-filters="sRGB">
<feFlood flood-opacity="0" result="BackgroundImageFix"/>
<feColorMatrix in="SourceAlpha" type="matrix" values="0 0 0 0 0 0 0 0 0 0 0 0 0 0 0 0 0 0 127 0" result="hardAlpha"/>
<feOffset dy="4"/>
<feGaussianBlur stdDeviation="2"/>
<feComposite in2="hardAlpha" operator="out"/>
<feColorMatrix type="matrix" values="0 0 0 0 0 0 0 0 0 0 0 0 0 0 0 0 0 0 0.25 0"/>
<feBlend mode="normal" in2="BackgroundImageFix" result="effect1_dropShadow_32_166"/>
<feColorMatrix in="SourceAlpha" type="matrix" values="0 0 0 0 0 0 0 0 0 0 0 0 0 0 0 0 0 0 127 0" result="hardAlpha"/>
<feOffset dy="4"/>
<feGaussianBlur stdDeviation="2"/>
<feComposite in2="hardAlpha" operator="out"/>
<feColorMatrix type="matrix" values="0 0 0 0 0 0 0 0 0 0 0 0 0 0 0 0 0 0 0.25 0"/>
<feBlend mode="normal" in2="effect1_dropShadow_32_166" result="effect2_dropShadow_32_166"/>
<feBlend mode="normal" in="SourceGraphic" in2="effect2_dropShadow_32_166" result="shape"/>
</filter>
<filter id="filter1_dd_32_166" x="15.6938" y="12" width="24.6168" height="24.6168" filterUnits="userSpaceOnUse" color-interpolation-filters="sRGB">
<feFlood flood-opacity="0" result="BackgroundImageFix"/>
<feColorMatrix in="SourceAlpha" type="matrix" values="0 0 0 0 0 0 0 0 0 0 0 0 0 0 0 0 0 0 127 0" result="hardAlpha"/>
<feOffset dy="4"/>
<feGaussianBlur stdDeviation="2"/>
<feComposite in2="hardAlpha" operator="out"/>
<feColorMatrix type="matrix" values="0 0 0 0 0 0 0 0 0 0 0 0 0 0 0 0 0 0 0.25 0"/>
<feBlend mode="normal" in2="BackgroundImageFix" result="effect1_dropShadow_32_166"/>
<feColorMatrix in="SourceAlpha" type="matrix" values="0 0 0 0 0 0 0 0 0 0 0 0 0 0 0 0 0 0 127 0" result="hardAlpha"/>
<feOffset dy="4"/>
<feGaussianBlur stdDeviation="2"/>
<feComposite in2="hardAlpha" operator="out"/>
<feColorMatrix type="matrix" values="0 0 0 0 0 0 0 0 0 0 0 0 0 0 0 0 0 0 0.25 0"/>
<feBlend mode="normal" in2="effect1_dropShadow_32_166" result="effect2_dropShadow_32_166"/>
<feBlend mode="normal" in="SourceGraphic" in2="effect2_dropShadow_32_166" result="shape"/>
</filter>
<clipPath id="clip0_32_166">
<rect width="32" height="32" fill="white" transform="translate(12 12)"/>
</clipPath>
</defs>
</svg>
